<svg xmlns="http://www.w3.org/2000/svg" viewBox="0 0 400 400" aria-hidden="true">
  <defs>
    <linearGradient id="lnSky" x1="0%" y1="0%" x2="100%" y2="100%">
      <stop offset="0%" stop-color="#7dd3fc"/>
      <stop offset="45%" stop-color="#38bdf8"/>
      <stop offset="100%" stop-color="#1e40af"/>
    </linearGradient>
    <linearGradient id="lnSlash" x1="0%" y1="100%" x2="100%" y2="0%">
      <stop offset="0%" stop-color="#e0f2fe" stop-opacity="0.95"/>
      <stop offset="40%" stop-color="#22d3ee" stop-opacity="0.55"/>
      <stop offset="100%" stop-color="#1d4ed8" stop-opacity="0"/>
    </linearGradient>
    <radialGradient id="lnAura" cx="72%" cy="78%" r="50%">
      <stop offset="0%" stop-color="#38bdf8" stop-opacity="0.45"/>
      <stop offset="100%" stop-color="#0c4a6e" stop-opacity="0"/>
    </radialGradient>
  </defs>
  <ellipse cx="280" cy="300" rx="120" ry="88" fill="url(#lnAura)"/>
  <path d="M88 72 A108 108 0 1 1 88 288 A86 86 0 1 0 88 72 Z" fill="url(#lnSky)" opacity="0.35"/>
  <!-- 持劍前衛剪影 -->
  <path fill="url(#lnSky)" d="M228 56c18-4 34 8 30 28l-14 44 52 26 40 72-56-20-14 96-64-56-52 64 16-92-52-36 48-40 26-86zm4 12c-6 0-10 6-8 12l6 28 38 18 30-14-26-34-40-10z"/>
  <path fill="url(#lnSky)" opacity="0.55" d="M196 220l-8 120h28l6-100 8 100h26l-10-118-44-2z"/>
  <polygon points="24,340 48,364 376,52 352,28" fill="url(#lnSlash)"/>
  <polygon points="36,328 48,340 364,64 352,52" fill="#f0f9ff" fill-opacity="0.75"/>
  <path d="M48 300 Q200 248 352 284" fill="none" stroke="url(#lnSlash)" stroke-width="5" stroke-linecap="round" opacity="0.85"/>
</svg>
